<mxfile modified="2023-04-03T12:43:23.182Z" host="app.diagrams.net" agent="Mozilla/5.0 (Windows NT 10.0; Win64; x64) AppleWebKit/537.36 (KHTML, like Gecko) Chrome/111.0.0.0 Safari/537.36" etag="8kP5KFoVss0R3XG_gyy3" version="21.1.1" type="github">
  <diagram id="WI9T0HZ2pTsCkuznbFz-" name="Page-1">
    <mxGraphModel dx="1354" dy="-219" grid="1" gridSize="10" guides="1" tooltips="1" connect="1" arrows="1" fold="1" page="1" pageScale="1" pageWidth="1169" pageHeight="827" math="0" shadow="0">
      <root>
        <mxCell id="0" />
        <mxCell id="1" parent="0" />
        <mxCell id="BEvqNx-zEb-Cgv7jO6CB-5" value="" style="sketch=0;pointerEvents=1;shadow=0;dashed=0;html=1;strokeColor=none;labelPosition=center;verticalLabelPosition=bottom;verticalAlign=top;align=center;fillColor=#515151;shape=mxgraph.mscae.system_center.admin_console" vertex="1" parent="1">
          <mxGeometry x="640" y="887.5" width="50" height="36" as="geometry" />
        </mxCell>
        <mxCell id="BEvqNx-zEb-Cgv7jO6CB-7" value="" style="shape=image;verticalLabelPosition=bottom;verticalAlign=top;imageAspect=0;aspect=fixed;image=data:image/svg+xml,PHN2ZyB4bWxucz0iaHR0cDovL3d3dy53My5vcmcvMjAwMC9zdmciIHZpZXdCb3g9IjAgMCA0OCA0OSIgZGF0YS1zbHVnLWlkPSJjbG91ZDE0Ij4mI3hhOzxwYXRoIGZpbGw9IiMwMDc4RDQiIGQ9Ik00Ny43MTM3IDMwLjAzNEM0Ny43MzkgMjkuOTI0NSA0Ny43NTU4IDI5LjgyMzQgNDcuNzgxMSAyOS43MTM5QzQ3LjkwNzQgMjkuMDU3MSA0Ny45NzQ3IDI4LjM3NSA0Ny45NzQ3IDI3LjY3NjFDNDcuOTc0NyAyMS42OTcxIDQzLjEyNTEgMTYuODYzNCAzNy4xNjQgMTYuODYzNEMzNi4zMzA1IDE2Ljg2MzQgMzUuNTEzOCAxNi45NTYxIDM0Ljc0NzYgMTcuMTQxM0MzMi4yODA2IDEzLjI1MDggMjcuOTM2MSAxMC42NjU1IDIyLjk4NTQgMTAuNjY1NUMxNS4yOTg0IDEwLjY2NTUgOS4wNzYzIDE2LjkwNTUgOS4wNzYzIDI0LjU3NzFDOS4wNzYzIDI0Ljc3MDggOS4wNzYzIDI0Ljk1NjEgOS4wODQ3MiAyNS4xNDEzQzguMzg1OSAyNC45MDU1IDcuNjM2NTUgMjQuNzcwOCA2Ljg1MzUzIDI0Ljc3MDhDMy4wNjQ3MyAyNC43NzA4IDAgMjcuODM2MSAwIDMxLjYyNTVDMCAzNS4xNzkyIDIuNzAyNjggMzguMTAxMyA2LjE3MTU1IDM4LjQzODJMMzcuMTY0IDM4LjQ5NzFDNDEuMjM5MSAzOC40OTcxIDQ0Ljc3NTMgMzYuMjQ4NyA0Ni42MTkyIDMyLjkzOTJDNDYuNjY5NyAzMi44NDY2IDQ2LjcyMDIgMzIuNzUzOSA0Ni43NzA3IDMyLjY1MjlDNDcuMDQ4NiAzMi4wODAzIDQ3LjQ2MTEgMzEuMTg3NiA0Ny43MTM3IDMwLjAzNFoiLz4mI3hhOzwvc3ZnPg==" vertex="1" parent="1">
          <mxGeometry x="240" y="900" width="48" height="49" as="geometry" />
        </mxCell>
        <mxCell id="BEvqNx-zEb-Cgv7jO6CB-8" value="" style="sketch=0;aspect=fixed;pointerEvents=1;shadow=0;dashed=0;html=1;strokeColor=none;labelPosition=center;verticalLabelPosition=bottom;verticalAlign=top;align=center;fillColor=#00188D;shape=mxgraph.mscae.general.tunnel" vertex="1" parent="1">
          <mxGeometry x="460" y="1060" width="50" height="9" as="geometry" />
        </mxCell>
        <mxCell id="BEvqNx-zEb-Cgv7jO6CB-9" value="" style="sketch=0;aspect=fixed;pointerEvents=1;shadow=0;dashed=0;html=1;strokeColor=none;labelPosition=center;verticalLabelPosition=bottom;verticalAlign=top;align=center;fillColor=#00188D;shape=mxgraph.mscae.general.tunnel" vertex="1" parent="1">
          <mxGeometry x="640" y="1051" width="50" height="9" as="geometry" />
        </mxCell>
        <mxCell id="BEvqNx-zEb-Cgv7jO6CB-10" value="" style="sketch=0;aspect=fixed;pointerEvents=1;shadow=0;dashed=0;html=1;strokeColor=none;labelPosition=center;verticalLabelPosition=bottom;verticalAlign=top;align=center;fillColor=#00188D;shape=mxgraph.mscae.enterprise.server_generic" vertex="1" parent="1">
          <mxGeometry x="830" y="1010" width="24" height="50" as="geometry" />
        </mxCell>
        <mxCell id="BEvqNx-zEb-Cgv7jO6CB-11" value="" style="sketch=0;aspect=fixed;pointerEvents=1;shadow=0;dashed=0;html=1;strokeColor=none;labelPosition=center;verticalLabelPosition=bottom;verticalAlign=top;align=center;fillColor=#00188D;shape=mxgraph.mscae.enterprise.server_generic" vertex="1" parent="1">
          <mxGeometry x="890" y="990" width="24" height="50" as="geometry" />
        </mxCell>
        <mxCell id="BEvqNx-zEb-Cgv7jO6CB-12" value="" style="shape=image;verticalLabelPosition=bottom;verticalAlign=top;imageAspect=0;aspect=fixed;image=data:image/svg+xml,PHN2ZyB4bWxucz0iaHR0cDovL3d3dy53My5vcmcvMjAwMC9zdmciIHZpZXdCb3g9IjAgMCA0OSA0OSIgZGF0YS1zbHVnLWlkPSJhcHBsaWNhdGlvbi1nYXRld2F5MDEiPiYjeGE7PHBhdGggZmlsbD0iIzAwNzJDNiIgZD0iTTQwLjQ2NTMgMjYuNjMzMUgzMi42NjM5VjMwLjc2MTJMMjYuODc5MiAyNC45NjVMMzIuNjYzOSAxOS4xNjc4VjIzLjIwNzhINDAuNDY1M1YyNi42MzMxWk0yNC4xNjIgNDIuOTY4M0wxOC4zNzczIDM3LjE3MkgyMi40MDkyVjI4LjkxNjdIMjUuODI3N1YzNy4xNzJIMjkuOTQ3NUwyNC4xNjIgNDIuOTY4M1pNNy44NTk1NSAyNi42MzMxVjIzLjIwNzhIMTUuNzQ4MVYxOS4wNzk3TDIxLjUzMjggMjQuODc2OEwxNS43NDgxIDMwLjY3MzFWMjYuNjMzMUg3Ljg1OTU1Wk0yNC4xNjIgNi43ODQ0NkwyOS45NDc1IDEyLjU4MDdIMjUuOTE1N1YyMS4wMTIzSDIyLjQ5NzJWMTIuNTgwN0gxOC4zNzczTDI0LjE2MiA2Ljc4NDQ2Wk00NC44NDc0IDIxLjYyNzhMMjcuMDU0MyAzLjc5OTA2QzI2LjI2NTkgMy4wMDgxNyAyNS4yMTQ0IDIuNTY5MDkgMjQuMTYyIDIuNTY5MDlDMjMuMTEwNSAyLjU2OTA5IDIyLjA1OSAzLjAwODE3IDIxLjI3MDYgMy43OTkwNkwzLjQ3NzUxIDIxLjYyNzhDMi42ODgyIDIyLjQxNzggMi4yNSAyMy40NzE0IDIuMjUgMjQuNTI1QzIuMjUgMjUuNTc5NSAyLjY4ODIgMjYuNjMzMSAzLjQ3NzUxIDI3LjQyMzFMMjEuMzU3NyA0NS4zNEMyMi4xNDcgNDYuMTMgMjMuMTEwNSA0Ni41NjkxIDI0LjI1IDQ2LjU2OTFDMjUuMzAxNSA0Ni41NjkxIDI2LjM1MzkgNDYuMTMgMjcuMTQyMyA0NS4zNEw0NS4wMjM0IDI3LjQyMzFDNDUuODExOCAyNi42MzMxIDQ2LjI1IDI1LjY2NjggNDYuMjUgMjQuNTI1QzQ2LjA3NDkgMjMuNDcxNCA0NS42MzY3IDIyLjQxNzggNDQuODQ3NCAyMS42Mjc4WiIgY2xpcC1ydWxlPSJldmVub2RkIiBmaWxsLXJ1bGU9ImV2ZW5vZGQiLz4mI3hhOzwvc3ZnPg==" vertex="1" parent="1">
          <mxGeometry x="440" y="840" width="49" height="49" as="geometry" />
        </mxCell>
      </root>
    </mxGraphModel>
  </diagram>
</mxfile>
